<svg xmlns="http://www.w3.org/2000/svg" width="800" height="104.084" viewBox="0 0 800 104.084">
  <g id="Group_110" data-name="Group 110" transform="translate(-187.723 -94.299)">
    <path id="Path_392" data-name="Path 392" d="M254.585,149.49v19.421H240.712V103h12.022l.486,5.05a25.828,25.828,0,0,1,42.489,20.192c0,14.668-10.282,26.291-25.611,26.291a25.41,25.41,0,0,1-15.523-5.05m13.581-7.712a13.526,13.526,0,1,0-13.677-13.526,13.077,13.077,0,0,0,12.607,13.533q.535.018,1.07-.007" transform="translate(73.889 10.68)" fill="#fff"/>
    <path id="Path_393" data-name="Path 393" d="M265.276,128.547c0-15.518,11.639-26.772,27.548-26.772,15.995,0,27.55,11.254,27.55,26.772s-11.543,26.777-27.55,26.777c-15.909,0-27.548-11.254-27.548-26.777m27.548,13.775a13.231,13.231,0,0,0,13.493-12.966c0-.271,0-.539-.01-.809a13.486,13.486,0,0,0-26.968-.393c0,.132,0,.263,0,.393a13.229,13.229,0,0,0,12.676,13.766c.268.012.539.014.807.01" transform="translate(108.142 10.425)" fill="#fff"/>
    <path id="Path_394" data-name="Path 394" d="M291.369,102.8h13.1l.388,6.111a21.091,21.091,0,0,1,16.49-7.08c13.387,0,19.888,8.732,19.888,22.6v29.777H327.358V125.981c0-7.375-3.589-11.352-10.09-11.352a11.011,11.011,0,0,0-12.03,11.642v27.938H291.367Z" transform="translate(144.524 10.48)" fill="#fff"/>
    <path id="Path_395" data-name="Path 395" d="M314.975,128.564a25.852,25.852,0,0,1,24.885-26.784c.726-.026,1.453-.022,2.179.012a25.387,25.387,0,0,1,26.193,21.342H354.567a13.814,13.814,0,1,0,0,10.761h13.775a25.5,25.5,0,0,1-26.274,21.44,25.907,25.907,0,0,1-27.055-24.708q-.047-1.031-.01-2.066" transform="translate(177.42 10.408)" fill="#fff"/>
    <path id="Path_396" data-name="Path 396" d="M340.058,95.515h13.871v22.311a20.516,20.516,0,0,1,15.909-6.791c13.581,0,20.08,8.73,20.08,22.6v29.782H376.046V135.193c0-7.372-3.589-11.352-10.09-11.352a11.008,11.008,0,0,0-12,9.918,10.9,10.9,0,0,0-.029,1.724v27.938H340.058Z" transform="translate(212.42 1.696)" fill="#fff"/>
    <path id="Path_397" data-name="Path 397" d="M363.646,128.547c0-15.518,11.642-26.772,27.55-26.772,15.992,0,27.55,11.254,27.55,26.772S407.2,155.324,391.2,155.324c-15.911,0-27.55-11.254-27.55-26.777m27.55,13.775a13.233,13.233,0,0,0,13.493-12.966c0-.271,0-.539-.01-.809a13.487,13.487,0,1,0-26.971-.393v.393a13.232,13.232,0,0,0,12.676,13.766c.27.012.539.014.809.01" transform="translate(245.312 10.425)" fill="#fff"/>
    <path id="Path_398" data-name="Path 398" d="M388.8,128.55c0-15.71,10.851-26.679,26.387-26.679a24.783,24.783,0,0,1,25.319,19.206h-8.261a16.978,16.978,0,0,0-16.878-11.445c-10.768,0-18.143,7.662-18.143,18.916,0,11.156,7.375,18.72,18.143,18.72a16.7,16.7,0,0,0,16.878-11.544h8.44a24.933,24.933,0,0,1-25.513,19.3,25.394,25.394,0,0,1-26.391-24.354c-.029-.711-.026-1.42,0-2.131" transform="translate(280.338 10.521)" fill="#fff"/>
    <path id="Path_399" data-name="Path 399" d="M412.7,128.439c0-15.423,10.67-26.581,25.8-26.581a25.4,25.4,0,0,1,19.208,8.148v-7.274h8.244v51.408H457.71v-7.272a25.382,25.382,0,0,1-19.208,8.148c-15.135,0-25.8-11.156-25.8-26.581m26.775,18.818a17.933,17.933,0,0,0,18.447-17.407q.022-.708-.014-1.41a18.388,18.388,0,1,0-36.766-.793c0,.263,0,.529,0,.793a17.859,17.859,0,0,0,16.866,18.8c.488.026.979.034,1.468.019" transform="translate(313.713 10.533)" fill="#fff"/>
    <path id="Path_400" data-name="Path 400" d="M448.988,145.94v22.091h-8.246V102.9h8.246v7.427a26.1,26.1,0,1,1,0,35.629m18.336.666a17.71,17.71,0,0,0,18.435-16.95c.019-.508.019-1.018,0-1.525a18.48,18.48,0,0,0-36.96,0,17.79,17.79,0,0,0,17.075,18.478c.484.019.967.017,1.453,0" transform="translate(352.817 10.792)" fill="#fff"/>
    <path id="Path_401" data-name="Path 401" d="M472.322,94.3a6.22,6.22,0,0,1,6.415,6.02c0,.127,0,.256,0,.383a6.41,6.41,0,0,1-12.805,0,6.223,6.223,0,0,1,6.034-6.4c.117,0,.237,0,.357,0m-4.174,19.4H476.4v51.411h-8.246Z" transform="translate(387.938 0)" fill="#fff"/>
    <path id="Path_402" data-name="Path 402" d="M484.343,147.362V118.937H473.585v-6.889H484.35V95.484H492.6v16.565H506.76v6.886H492.6v27.452c0,6.793,2.715,9.712,9.894,9.712a46.793,46.793,0,0,0,4.947-.285v7.662c-2.038.194-4.173.285-5.919.285-11.737,0-17.17-5.141-17.17-16.392" transform="translate(398.614 1.653)" fill="#fff"/>
    <path id="Path_403" data-name="Path 403" d="M489.989,128.439c0-15.423,10.67-26.581,25.8-26.581A25.39,25.39,0,0,1,535,110.007v-7.274h8.247v51.408H535v-7.272a25.373,25.373,0,0,1-19.206,8.148c-15.138,0-25.8-11.156-25.8-26.581m26.774,18.818a17.937,17.937,0,0,0,18.447-17.412q.018-.7-.017-1.406a18.386,18.386,0,0,0-36.764-.795c-.007.266-.007.529,0,.795a17.857,17.857,0,0,0,16.866,18.8q.733.039,1.465.019" transform="translate(421.488 10.533)" fill="#fff"/>
    <path id="Path_404" data-name="Path 404" d="M518.388,95.515h8.246v67.906h-8.246Z" transform="translate(461.089 1.696)" fill="#fff"/>
    <path id="Path_405" data-name="Path 405" d="M187.85,94.3" transform="translate(0.177 0.002)" fill="#fff"/>
    <path id="Path_406" data-name="Path 406" d="M187.85,94.3" transform="translate(0.177 0.002)" fill="#fff"/>
    <g id="Grupo_12691" data-name="Grupo 12691" transform="translate(187.723 94.309)">
      <path id="Path_407" data-name="Path 407" d="M239.771,94.3a52.037,52.037,0,1,0,52.048,52.026A52.039,52.039,0,0,0,239.771,94.3Zm-8.009,72.427a42.91,42.91,0,0,1-14.053,12.456,1.126,1.126,0,0,1-.45.1,1.021,1.021,0,0,1-1-1.022V119.722a1,1,0,0,1,1-1l27.366-.041a1.02,1.02,0,0,1,.716.285,1.087,1.087,0,0,1,.309.718,90.874,90.874,0,0,1-4.322,28.779A63.35,63.35,0,0,1,231.761,166.73Zm14.194-2.294a22.554,22.554,0,0,1-5.366-.634,1.133,1.133,0,0,1-.287-.1,1.034,1.034,0,0,1-.369-1.413,68.111,68.111,0,0,0,5.8-12.822,93.014,93.014,0,0,0,4.485-29.126.949.949,0,0,1,.021-.247,1.035,1.035,0,0,1,1.25-.738,22.883,22.883,0,0,1-5.531,45.082Z" transform="translate(-187.723 -94.303)" fill="#fff"/>
    </g>
  </g>
</svg>
